<?xml version="1.0" encoding="utf-8"?>
<!-- Generator: Adobe Illustrator 25.0.0, SVG Export Plug-In . SVG Version: 6.00 Build 0)  -->
<svg version="1.1" id="Layer_1" xmlns="http://www.w3.org/2000/svg" xmlns:xlink="http://www.w3.org/1999/xlink" x="0px" y="0px"
	 viewBox="0 0 500 500" style="enable-background:new 0 0 500 500;" xml:space="preserve">
<style type="text/css">
	.st0{fill:#FF7F32;}
</style>
<g>
	<g>
		<path class="st0" d="M217.12,290.22c1.71-0.78,3.41-1.71,5.27-2.64c2.48-1.24,5.12-2.64,7.75-4.19c1.86-1.09,3.87-2.17,5.74-3.41
			c4.5-2.64,9.15-5.74,14.11-9.15c4.81,3.41,9.61,6.51,14.26,9.15c-0.31-0.47-0.47-0.78-0.62-1.24l-2.79-5.43
			c-3.26-1.86-6.36-4.03-9.77-6.36l-0.46-0.16l-0.31-0.31l-0.31,0.15l-0.46-0.15l-0.31,0.31l-0.31,0.16h-0.15
			c-2.95,2.17-5.89,4.03-8.84,5.89h-0.16c-2.33,1.4-4.5,2.79-6.82,4.19c-2.48,1.24-4.96,2.63-7.29,3.72
			c-1.86,0.93-3.72,1.86-5.58,2.48c-12.09,5.43-22.48,7.6-31,7.6c-21.08-0.15-31-13.18-31-26.04c0-12.87,9.92-25.89,31-26.04
			c11.94,0,27.75,4.34,47.13,15.81l0.15-0.16l2.02-3.1c-27.59-17.36-50.07-24.18-67.43-24.18c-14.57,0-25.58,4.65-33.02,11.78
			c-7.44,6.98-11.16,16.43-11.16,25.89c0,9.46,3.72,18.91,11.16,25.89c7.44,7.13,18.45,11.78,33.02,11.78
			c12.71,0,27.9-3.56,46.04-12.25H217.12z"/>
		<path class="st0" d="M361.91,238.91c-7.44-7.13-18.45-11.78-32.86-11.78c-17.52,0-40.15,6.82-67.59,24.18
			c-1.09,0.47-2.33,1.24-3.41,2.02c-1.09,0.62-2.17,1.4-3.26,2.17c-1.08,0.78-2.17,1.4-3.26,2.17c-0.47,0.31-0.93,0.78-1.55,1.09
			c-0.62-0.31-1.09-0.78-1.7-1.09l-2.17,3.25c0.78,0.47,1.71,1.09,2.64,1.71h0.15l0.31,0.15l0.31,0.15h0.77l0.31-0.15l0.46-0.15
			c0.93-0.62,1.86-1.24,2.64-1.71c1.08-0.77,2.17-1.55,3.26-2.17c1.09-0.78,2.17-1.55,3.26-2.17c1.24-0.77,2.32-1.4,3.41-2.02
			c19.38-11.47,35.19-15.81,47.13-15.81c21.08,0.16,31,13.18,31,26.04c0,12.87-9.92,25.89-31,26.04c-8.53,0-19.07-2.33-31.16-7.75
			c0.46,0.93,0.93,1.71,1.24,2.64l1.86,4.18c18.14,8.99,33.48,12.56,46.35,12.56c14.42,0,25.42-4.65,32.86-11.78
			c7.44-6.98,11.16-16.43,11.16-25.89C373.07,255.34,369.35,245.89,361.91,238.91z"/>
		<path class="st0" d="M243.94,250.07v0.16c-0.78,1.09-1.4,2.17-2.17,3.1c-0.77,1.09-1.4,2.17-2.17,3.26
			c-0.77,1.09-1.39,2.17-2.17,3.25c-3.25,5.12-6.2,10.23-8.68,15.04c0.78-0.47,1.71-0.77,2.48-1.24l4.34-2.17
			c1.55-2.95,3.26-6.05,5.27-9.3c0.62-1.09,1.24-2.33,2.01-3.41c0.78-1.09,1.4-2.17,2.17-3.26c0.78-1.09,1.4-2.17,2.17-3.26
			c0.16-0.31,0.47-0.62,0.62-0.93l0.15-0.46l0.15-0.31v-0.77l-0.15-0.31l-0.15-0.31c-17.52-25.27-23.87-45.27-23.87-59.84
			c0-21.08,13.02-31,26.04-31c12.87,0,25.89,9.92,25.89,31c0.15,14.57-6.36,34.57-23.87,59.84v0.31l-0.31,0.31l0.15,0.46l-0.15,0.31
			l0.31,0.31v0.46c0.16,0.31,0.47,0.62,0.62,0.93l3.26-2.02l0.16-0.16v-0.15c22.79-32.71,31.47-58.91,31.47-78.75
			c0-14.57-4.65-25.58-11.63-33.02c-7.13-7.44-16.59-11.16-25.89-11.16c-9.46,0-18.91,3.72-26.04,11.16
			c-6.98,7.44-11.63,18.45-11.63,33.02c0,19.84,8.68,46.04,31.47,78.75L243.94,250.07z"/>
		<path class="st0" d="M277.27,287.28c-0.93-2.17-2.02-4.34-3.1-6.67c-0.93-1.86-1.86-3.72-2.94-5.58v-0.16
			c-2.64-4.81-5.58-9.77-8.84-15.04l-3.41,2.33c2.01,2.95,3.57,5.89,4.96,8.68c1.09,2.17,2.17,4.19,3.1,6.2
			c1.09,2.17,2.02,4.34,2.79,6.36c0.78,1.86,1.55,3.88,2.02,5.58c2.95,8.22,4.03,15.35,4.03,21.55v0.47c0,21.08-13.02,31-25.89,31
			c-13.02,0-26.04-9.92-26.04-31c0-6.36,1.09-13.64,4.19-22.01c-1.4,0.78-2.79,1.4-4.03,2.01l-4.03,2.02
			c-5.43,13.8-7.75,25.89-7.75,36.27c0,14.42,4.65,25.42,11.63,32.86c7.13,7.44,16.59,11.16,26.04,11.16
			c9.3,0,18.76-3.72,25.89-11.16c6.97-7.44,11.63-18.45,11.63-32.86c0-10.54-2.32-22.79-8.06-36.89
			C278.82,290.69,278.04,288.98,277.27,287.28z"/>
	</g>
</g>
</svg>
