<svg class="alignnone size-full style-svg replaced-svg svg-replaced-1" id="svg-replaced-1" fill="none" viewBox="0 0 477 484" height="72" width="72" xmlns="http://www.w3.org/2000/svg">
  <path fill="#994242" d="M125.493 234.494L96.1618 396.347C91.5692 421.733 134.227 421.536 176.012 395.867L398.769 259.034C440.581 233.366 453.204 199.799 422.408 195.963L226.531 172.438C194.101 168.546 130.367 207.697 125.493 234.494Z" opacity="0.2"></path>
  <path fill="#54CC90" d="M385.3 20.1088L180.886 190.092C148.754 216.816 141.297 255.869 166.818 263.193L303.59 302.303C329.223 309.627 370.584 280.245 381.023 247.329L447.285 38.0657C458.258 3.39593 419.148 -7.77422 385.384 20.3632" opacity="0.5"></path>
  <path fill="#EB956A" d="M310.74 422.123L313.842 279.83C314.33 257.444 292.524 229.974 272.994 228.434L169.028 220.078C149.497 218.509 145.518 243.926 161.559 267.607L263.583 418.332C280.484 443.319 310.231 445.673 310.74 422.123Z" opacity="0.7"></path>
  <path fill="#2514BE" d="M42.9071 143.938L190.136 310.262C213.271 336.412 245.132 340.472 249.748 317.843L274.375 197.373C278.991 174.659 253.238 140.815 226.19 133.802L54.0526 89.3104C25.5694 81.9567 18.533 116.425 42.7944 143.938" opacity="0.7"></path>
</svg>